<svg width="30" height="30" viewBox="0 0 30 30" fill="none" xmlns="http://www.w3.org/2000/svg">
<path d="M0.999995 5.99512C0.447498 5.99512 0 6.44262 0 6.99511V7.99511C0 8.46511 0.327498 8.8576 0.764997 8.9651C0.839996 8.9826 0.919996 8.9951 0.999995 8.9951H2.00249C2.00249 9.0651 4.37498 21.2075 4.37498 21.2075C4.46498 21.6675 4.83748 21.9975 5.26998 21.9975H21.0149L23.5649 8.9951H24.6824V8.9651L24.9974 7.99511V5.99512H0.999995Z" fill="url(#paint0_linear_125_363)"/>
<path d="M0 7.99512C0 8.46512 0.327498 8.85761 0.764996 8.96511H24.6849L24.9999 7.99512H0Z" fill="#F57C00"/>
<path d="M4.13535 11.1051L5.91284 19.1075C5.96284 19.3375 6.16534 19.5 6.40034 19.5H7.50034C7.77534 19.5 8.00033 19.275 8.00033 19V10.9976C8.00033 10.7226 7.77534 10.4976 7.50034 10.4976H4.62285C4.30285 10.4976 4.06535 10.7926 4.13535 11.1051Z" fill="#F57C00"/>
<path d="M19.865 11.1051L18.0875 19.1075C18.0375 19.3375 17.835 19.5 17.6 19.5H16.5C16.225 19.5 16 19.275 16 19V10.9976C16 10.7226 16.225 10.4976 16.5 10.4976H19.3775C19.695 10.4976 19.935 10.7926 19.865 11.1051Z" fill="#F57C00"/>
<path d="M10.5572 10.4976H13.4397C13.7372 10.4976 13.9697 10.7576 13.9372 11.0526L13.0497 19.0525C13.0222 19.305 12.8072 19.4975 12.5522 19.4975H11.4472C11.1922 19.4975 10.9772 19.305 10.9497 19.0525L10.0597 11.0501C10.0272 10.7551 10.2597 10.4976 10.5572 10.4976Z" fill="#F57C00"/>
<path opacity="0.2" d="M24.2499 6.74511V7.87761L24.1299 8.24761H23.5674C23.2099 8.24761 22.8999 8.50261 22.8324 8.8526L20.3999 21.25H5.26998C5.20998 21.25 5.13248 21.18 5.10998 21.065C4.47498 17.8176 2.82249 9.3551 2.74249 8.8951C2.69249 8.52761 2.37999 8.24761 1.99999 8.24761H0.999995C0.994995 8.24761 0.977495 8.24761 0.942496 8.23761C0.849996 8.21511 0.749997 8.13011 0.749997 7.99511V6.99511C0.749997 6.85761 0.862496 6.74511 0.999995 6.74511H24.2499ZM24.9999 5.99512H0.999995C0.447498 5.99512 0 6.44262 0 6.99511V7.99511C0 8.46511 0.327498 8.8576 0.764996 8.9651C0.839996 8.9826 0.919996 8.9951 0.999995 8.9951H2.00249C2.00249 9.0651 4.37498 21.2075 4.37498 21.2075C4.46498 21.6675 4.83748 21.9975 5.26998 21.9975H21.0149L23.5674 8.9951H24.6849V8.9651L24.9999 7.99511V5.99512Z" fill="#424242"/>
<path opacity="0.2" d="M7.50034 10.9976V19H6.40034L4.62285 10.9976H7.50034ZM7.50034 10.4976H4.62285C4.30285 10.4976 4.06535 10.7951 4.13535 11.1051L5.91284 19.1075C5.96284 19.3375 6.16534 19.5 6.40034 19.5H7.50034C7.77534 19.5 8.00033 19.275 8.00033 19V10.9976C8.00033 10.7201 7.77534 10.4976 7.50034 10.4976Z" fill="#424242"/>
<path opacity="0.2" d="M19.3775 10.9976L17.6 19H16.5V10.9976H19.3775ZM19.3775 10.4976H16.5C16.225 10.4976 16 10.7226 16 10.9976V19C16 19.275 16.225 19.5 16.5 19.5H17.6C17.835 19.5 18.0375 19.3375 18.0875 19.1075L19.865 11.1051C19.935 10.7926 19.695 10.4976 19.3775 10.4976Z" fill="#424242"/>
<path opacity="0.2" d="M13.4397 10.9976L12.5497 19H11.4447L10.5547 10.9976H13.4397ZM13.4397 10.4976H10.5572C10.2597 10.4976 10.0272 10.7576 10.0597 11.0526L10.9497 19.055C10.9772 19.3075 11.1922 19.5 11.4472 19.5H12.5522C12.8072 19.5 13.0222 19.3075 13.0497 19.055L13.9397 11.0526C13.9697 10.7551 13.7397 10.4976 13.4397 10.4976Z" fill="#424242"/>
<path d="M26.1322 0.897642C25.5422 1.09514 25.0847 1.56764 24.9072 2.16264L19.0422 21.7125C18.9697 21.9575 18.9922 22.22 19.1047 22.4475L20.0197 24.2775C20.1872 24.61 19.9447 25.0025 19.5722 25.0025H1.99979C1.41479 25.0025 0.947293 25.505 1.00479 26.1C1.05479 26.62 1.51979 27.0025 2.04229 27.0025H21.9622C22.2047 27.0025 22.4497 26.93 22.6372 26.775C23.0072 26.465 23.0972 25.96 22.8947 25.555L21.4822 22.7325C21.2172 22.205 21.1647 21.595 21.3347 21.0301L26.7322 3.03263C26.7697 2.90263 26.8597 2.80013 26.9772 2.73763L26.1472 0.895142L26.1322 0.897642Z" fill="url(#paint1_linear_125_363)"/>
<path d="M29.8609 0.487653C29.6234 0.0726546 29.1109 -0.0973447 28.6584 0.0551547L26.1484 0.892651L26.9784 2.73514C27.0034 2.72264 27.0259 2.70764 27.0534 2.70014L29.3134 1.94515C29.9034 1.74765 30.1884 1.05765 29.8609 0.487653Z" fill="#F57C00"/>
<path opacity="0.2" d="M28.9922 0.50012C29.1772 0.50012 29.3447 0.590119 29.4272 0.735119C29.5347 0.922618 29.4972 1.08762 29.4647 1.17262C29.4097 1.31262 29.2972 1.42262 29.1547 1.47012L26.8947 2.22511C26.8297 2.24761 26.7822 2.27261 26.7422 2.29511C26.5022 2.42261 26.3297 2.63261 26.2522 2.88761L20.8572 20.8825C20.6497 21.5725 20.7147 22.3075 21.0347 22.9525L22.4472 25.775C22.5522 25.9825 22.4972 26.235 22.3147 26.3875C22.2297 26.46 22.1022 26.5 21.9622 26.5H2.04229C1.76229 26.5 1.52479 26.3025 1.50229 26.05C1.48729 25.905 1.53479 25.7675 1.62979 25.6625C1.72479 25.5575 1.85729 25.5 1.99979 25.5H19.5722C19.9222 25.5 20.2397 25.3225 20.4222 25.025C20.6047 24.7275 20.6222 24.365 20.4672 24.0525L19.5522 22.2225C19.4947 22.1075 19.4847 21.9775 19.5197 21.855L25.3847 2.30511C25.5172 1.86511 25.8547 1.51762 26.2897 1.37262L26.3047 1.36762L28.8147 0.53012C28.8747 0.51012 28.9322 0.50012 28.9922 0.50012ZM28.9922 0.00012207C28.8797 0.00012207 28.7672 0.0176219 28.6572 0.0551218L26.1472 0.892618L26.1322 0.897618C25.5422 1.09512 25.0847 1.56761 24.9072 2.16261L19.0422 21.7125C18.9697 21.9575 18.9922 22.22 19.1047 22.4475L20.0197 24.2775C20.1872 24.61 19.9447 25.0025 19.5722 25.0025H1.99979C1.41479 25.0025 0.947293 25.505 1.00479 26.1C1.05479 26.62 1.51979 27.0025 2.04229 27.0025H21.9622C22.2047 27.0025 22.4497 26.93 22.6372 26.775C23.0072 26.465 23.0972 25.96 22.8947 25.555L21.4822 22.7325C21.2172 22.205 21.1647 21.595 21.3347 21.03L26.7322 3.03261C26.7697 2.90261 26.8597 2.80011 26.9772 2.73761C27.0022 2.72511 27.0247 2.71011 27.0522 2.70261L29.3122 1.94761C29.8997 1.75011 30.1847 1.06012 29.8597 0.49012C29.6822 0.172621 29.3447 0.00012207 28.9922 0.00012207Z" fill="#424242"/>
<path d="M5.99999 30C7.10456 30 7.99998 29.1046 7.99998 28C7.99998 26.8954 7.10456 26 5.99999 26C4.89543 26 4 26.8954 4 28C4 29.1046 4.89543 30 5.99999 30Z" fill="#37474F"/>
<path d="M19 30C20.1046 30 21 29.1046 21 28C21 26.8954 20.1046 26 19 26C17.8954 26 17 26.8954 17 28C17 29.1046 17.8954 30 19 30Z" fill="#37474F"/>
<path d="M6.49999 29H5.5C5.225 29 5 28.775 5 28.5V26H6.99999V28.5C6.99999 28.775 6.77499 29 6.49999 29Z" fill="#B0BEC5"/>
<path d="M6 28.0001C6.27614 28.0001 6.5 27.7763 6.5 27.5001C6.5 27.224 6.27614 27.0001 6 27.0001C5.72386 27.0001 5.5 27.224 5.5 27.5001C5.5 27.7763 5.72386 28.0001 6 28.0001Z" fill="#FAFAFA" stroke="#757575" stroke-width="0.973458" stroke-miterlimit="10"/>
<path d="M19.5 29H18.5C18.225 29 18 28.775 18 28.5V26H20V28.5C20 28.775 19.775 29 19.5 29Z" fill="#B0BEC5"/>
<path d="M19 28.0001C19.2761 28.0001 19.5 27.7763 19.5 27.5001C19.5 27.224 19.2761 27.0001 19 27.0001C18.7239 27.0001 18.5 27.224 18.5 27.5001C18.5 27.7763 18.7239 28.0001 19 28.0001Z" fill="#FAFAFA" stroke="#757575" stroke-width="0.973458" stroke-miterlimit="10"/>
<defs>
<linearGradient id="paint0_linear_125_363" x1="12.4997" y1="5.59037" x2="12.4997" y2="23.393" gradientUnits="userSpaceOnUse">
<stop stop-color="#FFA726"/>
<stop offset="1" stop-color="#FB8C00"/>
</linearGradient>
<linearGradient id="paint1_linear_125_363" x1="13.9892" y1="-3.85184" x2="13.9892" y2="31.2625" gradientUnits="userSpaceOnUse">
<stop stop-color="#90A4AE"/>
<stop offset="1" stop-color="#607D8B"/>
</linearGradient>
</defs>
</svg>
