<svg width="24" height="30" viewBox="0 0 24 30" fill="none" xmlns="http://www.w3.org/2000/svg">
<path d="M4.65516 9.18282C4.51266 10.7028 4.41266 13.3928 5.31015 14.5377C5.31015 14.5377 4.88765 11.5828 8.67509 7.87534C10.2001 6.38286 10.5526 4.3529 10.0201 2.83042C9.71758 1.96793 9.16509 1.25544 8.68509 0.757951C8.4051 0.465456 8.6201 -0.0170366 9.02759 0.000463134C11.4926 0.110461 15.4875 0.79545 17.185 5.05538C17.93 6.92536 17.9849 8.85783 17.63 10.8228C17.405 12.0778 16.605 14.8677 18.4299 15.2102C19.7324 15.4552 20.3624 14.4202 20.6449 13.6753C20.7624 13.3653 21.1699 13.2878 21.3899 13.5353C23.5899 16.0377 23.7774 18.9852 23.3224 21.5226C22.4424 26.4276 17.475 29.9975 12.54 29.9975C6.37513 29.9975 1.46771 26.4701 0.195226 20.0852C-0.317266 17.5077 -0.0572696 12.4078 3.91767 8.80783C4.21266 8.53783 4.69516 8.77783 4.65516 9.18282Z" fill="url(#paint0_radial_125_428)"/>
<path d="M14.7932 18.3551C12.5207 15.4302 13.5382 12.0927 14.0957 10.7628C14.1707 10.5878 13.9707 10.4228 13.8132 10.5303C12.8357 11.1953 10.8332 12.7602 9.90074 14.9627C8.63825 17.9402 8.72825 19.3976 9.47574 21.1776C9.92573 22.2501 9.40324 22.4776 9.14075 22.5176C8.88575 22.5576 8.65075 22.3876 8.46326 22.2101C7.92577 21.6976 7.53827 21.0301 7.35327 20.3101C7.31327 20.1551 7.11078 20.1126 7.01828 20.2401C6.31829 21.2076 5.9558 22.7601 5.9383 23.8576C5.8833 27.25 8.68575 30 12.0757 30C16.3481 30 19.4606 25.275 17.0056 21.3251C16.2931 20.1751 15.6231 19.4226 14.7932 18.3551Z" fill="url(#paint1_radial_125_428)"/>
<defs>
<radialGradient id="paint0_radial_125_428" cx="0" cy="0" r="1" gradientUnits="userSpaceOnUse" gradientTransform="translate(11.3191 30.0752) rotate(-179.751) scale(17.6466 28.9546)">
<stop offset="0.3144" stop-color="#FF9800"/>
<stop offset="0.6616" stop-color="#FF6D00"/>
<stop offset="0.9715" stop-color="#F44336"/>
</radialGradient>
<radialGradient id="paint1_radial_125_428" cx="0" cy="0" r="1" gradientUnits="userSpaceOnUse" gradientTransform="translate(12.3107 12.515) rotate(90.5787) scale(18.4638 13.8954)">
<stop offset="0.2141" stop-color="#FFF176"/>
<stop offset="0.3275" stop-color="#FFF27D"/>
<stop offset="0.4868" stop-color="#FFF48F"/>
<stop offset="0.6722" stop-color="#FFF7AD"/>
<stop offset="0.7931" stop-color="#FFF9C4"/>
<stop offset="0.8221" stop-color="#FFF8BD" stop-opacity="0.804"/>
<stop offset="0.8627" stop-color="#FFF6AB" stop-opacity="0.529"/>
<stop offset="0.9101" stop-color="#FFF38D" stop-opacity="0.2088"/>
<stop offset="0.9409" stop-color="#FFF176" stop-opacity="0"/>
</radialGradient>
</defs>
</svg>
