<svg width="44" height="30" viewBox="0 0 44 30" fill="none" xmlns="http://www.w3.org/2000/svg">
<path d="M16.459 6.4508C17.8137 5.27531 21.2434 2.4907 24.1068 1.75243C24.8415 1.56249 25.5045 1.47289 26.1281 1.47289C27.2391 1.47289 28.0419 1.77035 28.816 2.05347C29.5076 2.30792 30.2244 2.57312 31.0773 2.57312C31.4536 2.57312 31.8264 2.52295 32.217 2.4226C32.7151 2.29359 33.2169 1.96388 33.7473 1.61625C34.5214 1.11093 35.3994 0.533936 36.3527 0.533936C37.134 0.533936 37.9081 0.913819 38.7216 1.69867L41.2338 4.05682C42.4774 5.30757 42.5599 7.01704 42.4093 8.22479C42.0402 11.1922 39.8075 14.6971 37.2666 16.3529L16.459 6.4508Z" fill="url(#paint0_linear_125_424)"/>
<path d="M36.3519 1.07514C36.9862 1.07514 37.6385 1.40844 38.3553 2.10011L40.846 4.44034C41.724 5.33271 42.0681 6.58345 41.871 8.16391C41.5305 10.8948 39.5307 14.1059 37.2156 15.7401L17.433 6.32184C19.0063 5.01733 21.8375 2.88855 24.235 2.27213C24.9267 2.09653 25.5431 2.00693 26.1237 2.00693C27.1379 2.00693 27.8619 2.27213 28.6252 2.55526C29.3635 2.82762 30.1232 3.10716 31.073 3.10716C31.4958 3.10716 31.9116 3.0534 32.3488 2.93872C32.9329 2.7882 33.4705 2.43699 34.0403 2.06427C34.7894 1.58046 35.5599 1.07514 36.3519 1.07514ZM36.3519 0C34.56 0 33.1731 1.61988 32.08 1.903C31.718 1.99618 31.3847 2.0356 31.0765 2.0356C29.4387 2.0356 28.3708 0.93179 26.1273 0.93179C25.5109 0.93179 24.8049 1.01422 23.9698 1.22925C20.1459 2.21121 15.4941 6.58345 15.4941 6.58345L37.3016 16.9657C41.4409 14.4822 45.0964 7.18912 41.5986 3.66624L39.0935 1.31167C38.0865 0.344045 37.1762 0 36.3519 0Z" fill="#E6B77E"/>
<path d="M22.3956 29.208C21.8401 29.208 21.2953 29.0073 20.8725 28.6418L3.77052 13.5289C1.81018 11.7943 0.602438 9.62609 0.541513 7.72309C0.498507 6.36841 1.02174 5.132 2.09689 4.04969L4.59122 1.70946C5.40832 0.921021 6.18243 0.541138 6.9637 0.541138C7.91699 0.541138 8.79502 1.11455 9.56913 1.62345C10.0995 1.97108 10.6013 2.30079 11.0994 2.4298C11.49 2.53015 11.8628 2.58032 12.2391 2.58032C13.092 2.58032 13.8052 2.31512 14.4969 2.06067C15.271 1.77397 16.0737 1.4801 17.1847 1.4801C17.8119 1.4801 18.4713 1.57327 19.206 1.75963C22.8507 2.69501 27.4022 6.94182 27.4487 6.98483L37.5551 15.9802C38.5585 16.8403 38.6804 18.3491 37.8382 19.3525L37.7665 19.4386C37.3185 19.9725 36.6627 20.2772 35.9675 20.2772C35.5947 20.2772 35.222 20.1876 34.8923 20.0155C34.8135 19.9761 34.731 19.9546 34.645 19.9546C34.5268 19.9546 34.4085 19.994 34.3117 20.0729C34.1469 20.2055 34.0716 20.4205 34.1254 20.6248C34.3153 21.3774 34.1325 22.1766 33.638 22.7607L33.5663 22.8468C33.1183 23.3807 32.4625 23.6854 31.7708 23.6854C31.244 23.6854 30.7458 23.5133 30.3301 23.1908C30.2334 23.1155 30.1187 23.0761 30.0004 23.0761C29.9072 23.0761 29.8105 23.1012 29.728 23.1514C29.5381 23.2625 29.4342 23.4811 29.47 23.6997C29.5775 24.3914 29.384 25.0902 28.9396 25.6206L28.8679 25.7066C28.42 26.2406 27.7641 26.5452 27.0689 26.5452C26.5635 26.5452 26.0797 26.384 25.6748 26.0829C25.5816 26.0113 25.4669 25.979 25.3558 25.979C25.2662 25.979 25.1766 26.0005 25.0942 26.0471C24.9114 26.1474 24.8003 26.3481 24.8182 26.5596C24.8684 27.1939 24.6713 27.8067 24.2627 28.2906L24.1911 28.3766C23.7467 28.9034 23.0908 29.208 22.3956 29.208Z" fill="url(#paint1_linear_125_424)"/>
<path d="M6.96014 1.07514C7.75575 1.07514 8.52627 1.58046 9.2717 2.06786C9.84152 2.44057 10.3791 2.79179 10.9633 2.94231C11.4005 3.05699 11.8162 3.11075 12.2391 3.11075C13.1852 3.11075 13.9486 2.82763 14.6832 2.55884C15.4466 2.27572 16.1705 2.01052 17.1847 2.01052C17.7653 2.01052 18.3817 2.09653 19.0734 2.27572C22.582 3.17525 27.0402 7.32889 27.0832 7.37189C27.0904 7.37906 27.0976 7.38623 27.1047 7.38981L37.2003 16.3744L37.2146 16.3888C37.9852 17.0482 38.0819 18.2201 37.4261 19.0014L37.3544 19.0874C37.0068 19.4995 36.5051 19.736 35.9675 19.736C35.6808 19.736 35.3941 19.6679 35.1396 19.5353C34.9855 19.4565 34.8135 19.4171 34.6451 19.4171C34.4085 19.4171 34.172 19.4959 33.9749 19.65C33.6452 19.9116 33.4982 20.3453 33.6022 20.7538C33.7491 21.338 33.6093 21.958 33.2259 22.4131L33.1542 22.4991C32.8066 22.9113 32.3048 23.1478 31.7708 23.1478C31.3659 23.1478 30.9824 23.0152 30.6599 22.7644C30.4663 22.6138 30.2334 22.5386 30.0004 22.5386C29.8141 22.5386 29.6241 22.5887 29.4557 22.6891C29.0758 22.9149 28.8715 23.3485 28.9396 23.7822C29.0256 24.3197 28.8751 24.8645 28.5275 25.273L28.4558 25.359C28.1082 25.7712 27.6065 26.0077 27.0689 26.0077C26.6783 26.0077 26.3091 25.8858 25.9937 25.6529C25.8038 25.5131 25.578 25.4415 25.3522 25.4415C25.1731 25.4415 24.9939 25.4845 24.8326 25.5741C24.4635 25.7783 24.2484 26.1797 24.2807 26.599C24.3201 27.09 24.166 27.5667 23.8506 27.943L23.779 28.029C23.4313 28.4411 22.926 28.6776 22.3884 28.6776C21.9584 28.6776 21.5427 28.5235 21.2273 28.2547L4.11818 13.1311C2.26894 11.4933 1.12929 9.46842 1.07195 7.71236C1.03252 6.50103 1.48767 5.43305 2.45888 4.44751L4.96396 2.09653C5.67356 1.40844 6.32581 1.07514 6.96014 1.07514ZM6.96014 0C6.13587 0 5.22558 0.344046 4.21853 1.31526L1.71345 3.66982C-1.78435 7.1927 0.731485 11.5614 3.41217 13.9303L20.5213 29.0539C21.066 29.5198 21.7326 29.7492 22.3956 29.7492C23.2163 29.7492 24.0334 29.398 24.6068 28.7171L24.6785 28.631C25.1946 28.0182 25.4168 27.2549 25.3558 26.513C25.8683 26.8929 26.4704 27.0793 27.0725 27.0793C27.8932 27.0793 28.7067 26.728 29.2801 26.0471L29.3518 25.9611C29.9216 25.2838 30.1295 24.4237 30.0004 23.6101C30.5273 24.0187 31.1508 24.2194 31.7708 24.2194C32.5915 24.2194 33.4051 23.8682 33.9785 23.1908L34.0501 23.1048C34.6809 22.3558 34.8708 21.3774 34.6451 20.4886C35.0608 20.7037 35.5123 20.8076 35.9639 20.8076C36.7846 20.8076 37.5981 20.46 38.1715 19.779L38.2432 19.693C39.2789 18.4602 39.1284 16.6181 37.9063 15.5716L27.8179 6.58704C27.8179 6.58704 23.1625 2.21121 19.3422 1.23283C18.5108 1.0178 17.8047 0.935374 17.1847 0.935374C14.9449 0.935374 13.8769 2.03919 12.2355 2.03919C11.9237 2.03919 11.594 1.99976 11.232 1.90659C10.139 1.61988 8.75205 0 6.96014 0Z" fill="#E6B77E"/>
<path d="M9.43568 23.1908C8.67949 23.1908 7.97707 22.8145 7.55059 22.1873C6.83742 21.1372 7.10262 19.693 8.14551 18.9726L12.0805 16.2525C12.464 15.9873 12.9084 15.8475 13.3671 15.8475C14.1233 15.8475 14.8257 16.2238 15.2522 16.851C15.9654 17.9011 15.7002 19.3453 14.6573 20.0657L10.7223 22.7858C10.3424 23.051 9.89799 23.1908 9.43568 23.1908Z" fill="url(#paint2_radial_125_424)"/>
<path d="M13.3681 16.3887C13.9451 16.3887 14.4827 16.6754 14.8088 17.1557C15.3571 17.9656 15.1529 19.073 14.3537 19.6249L10.4187 22.345C10.1284 22.5457 9.78791 22.6532 9.4367 22.6532C8.8597 22.6532 8.32213 22.3665 7.996 21.8863C7.44768 21.0764 7.65196 19.969 8.45115 19.4171L12.3862 16.6969C12.6765 16.4963 13.0169 16.3887 13.3681 16.3887ZM13.3681 15.3136C12.8198 15.3136 12.2643 15.4749 11.7733 15.8117L7.83832 18.5319C6.55173 19.4206 6.22202 21.191 7.10364 22.4884C7.65196 23.2947 8.53358 23.7248 9.4367 23.7248C9.98502 23.7248 10.5405 23.5635 11.0315 23.2266L14.9665 20.5065C16.2531 19.6178 16.5828 17.8473 15.7012 16.55C15.1529 15.7472 14.2677 15.3136 13.3681 15.3136Z" fill="#E6B77E"/>
<path d="M17.5836 29.4661C17.0246 29.4661 16.487 29.2582 16.0677 28.8819C15.1251 28.0361 15.0391 26.5704 15.8777 25.6171L18.1678 23.0224C18.6014 22.5314 19.225 22.2483 19.8737 22.2483C20.4328 22.2483 20.9703 22.4562 21.3896 22.8325C22.3322 23.6782 22.4182 25.144 21.5796 26.0973L19.2895 28.692C18.8559 29.183 18.2359 29.4661 17.5836 29.4661Z" fill="url(#paint3_radial_125_424)"/>
<path d="M19.8781 22.7894C20.3046 22.7894 20.7167 22.9471 21.0357 23.2338C21.7596 23.886 21.8241 25.0113 21.179 25.7424L18.889 28.3371C18.5593 28.7134 18.0826 28.9284 17.5845 28.9284C17.158 28.9284 16.7459 28.7708 16.4269 28.484C15.703 27.8318 15.6385 26.7065 16.2836 25.9754L18.5736 23.3807C18.9033 23.0044 19.38 22.7894 19.8781 22.7894ZM19.8781 21.7142C19.1004 21.7142 18.3263 22.0368 17.7673 22.6675L15.4772 25.2622C14.4415 26.4377 14.5454 28.2368 15.7101 29.2796C16.2477 29.7635 16.9179 30 17.5845 30C18.3622 30 19.1363 29.6775 19.6953 29.0467L21.9854 26.452C23.0211 25.2765 22.9172 23.4775 21.7524 22.4346C21.2149 21.9508 20.5447 21.7142 19.8781 21.7142Z" fill="#E6B77E"/>
<path d="M6.56086 19.3848C5.76883 19.3848 5.04849 18.9799 4.63277 18.3025C3.97335 17.2274 4.30306 15.8118 5.36745 15.1452L7.76502 13.6471C8.1234 13.425 8.53553 13.3031 8.95484 13.3031C9.74686 13.3031 10.4672 13.7081 10.8829 14.3854C11.5423 15.4606 11.2126 16.8762 10.1482 17.5392L7.75068 19.0372C7.3923 19.2666 6.98016 19.3848 6.56086 19.3848Z" fill="url(#paint4_radial_125_424)"/>
<path d="M8.95624 13.8442C9.55832 13.8442 10.1102 14.1524 10.4256 14.672C10.9309 15.4963 10.6801 16.5822 9.86294 17.0911L7.46896 18.5856C7.19659 18.7576 6.8848 18.8472 6.56584 18.8472C5.96376 18.8472 5.41185 18.539 5.09648 18.0193C4.59116 17.195 4.84203 16.1092 5.65914 15.6003L8.0567 14.1022C8.32549 13.9338 8.63728 13.8442 8.95624 13.8442ZM8.95624 12.769C8.45092 12.769 7.94202 12.9052 7.48329 13.1919L5.08573 14.69C3.77047 15.5107 3.36191 17.256 4.17902 18.582C4.70943 19.4457 5.62688 19.9223 6.56584 19.9223C7.07116 19.9223 7.58006 19.7861 8.03878 19.4994L10.4364 18.0014C11.7516 17.1807 12.1602 15.4354 11.3431 14.1094C10.8127 13.2421 9.8952 12.769 8.95624 12.769Z" fill="#E6B77E"/>
<path d="M12.7846 27.3552C12.1933 27.3552 11.6342 27.1223 11.2149 26.6994C10.3476 25.8249 10.3476 24.3986 11.2149 23.5205L15.4223 19.2773C15.8416 18.8544 16.4007 18.6215 16.992 18.6215C17.5833 18.6215 18.1424 18.8544 18.5617 19.2773C19.4326 20.1553 19.4326 21.5781 18.5617 22.4561L14.3543 26.6994C13.935 27.1223 13.3759 27.3552 12.7846 27.3552Z" fill="url(#paint5_radial_125_424)"/>
<path d="M16.9911 19.1591C17.4391 19.1591 17.862 19.3347 18.1809 19.6573C18.8439 20.3239 18.8439 21.4098 18.1809 22.0799L13.9699 26.3196C13.651 26.6385 13.2317 26.8177 12.7801 26.8177C12.3286 26.8177 11.9093 26.6421 11.5903 26.3196C10.9273 25.653 10.9273 24.5671 11.5903 23.8969L15.7977 19.6537C16.1202 19.3347 16.5395 19.1591 16.9911 19.1591ZM16.9911 18.084C16.2851 18.084 15.5791 18.3564 15.0379 18.8975L10.8305 23.1407C9.7518 24.2266 9.7518 25.9899 10.8305 27.0758C11.3681 27.6205 12.0741 27.8893 12.7837 27.8893C13.4897 27.8893 14.1957 27.6169 14.7369 27.0758L18.9443 22.8325C20.023 21.7466 20.023 19.9834 18.9443 18.8975C18.4031 18.3564 17.6971 18.084 16.9911 18.084Z" fill="#E6B77E"/>
<mask id="mask0_125_424" style="mask-type:luminance" maskUnits="userSpaceOnUse" x="14" y="1" width="16" height="10">
<path d="M14.6324 8.81248C13.8261 7.41838 14.2884 5.79133 15.7864 4.86312L24.1295 1.1503C25.047 0.817003 26.0755 3.00313 26.0755 3.00313L27.5342 5.68381C27.5342 5.68381 28.8422 7.60115 28.9856 7.77676C29.7239 8.66913 28.6057 7.52231 27.0754 7.18543C24.3661 6.5941 20.2769 9.85895 18.3202 10.2066C16.3634 10.5542 15.4388 10.2066 14.6324 8.81248Z" fill="white"/>
</mask>
<g mask="url(#mask0_125_424)">
<path d="M17.0905 9.79456C16.1516 9.79456 15.6284 9.46843 15.0944 8.54381C14.4314 7.39699 14.8112 6.11399 16.0333 5.3363L24.3227 1.64856C24.6631 1.53029 25.2043 1.45862 25.8171 1.45862C27.6234 1.45862 29.3436 2.01411 29.5801 2.66995C29.5909 2.7022 29.6052 2.73087 29.6231 2.75954L32.2644 7.2393C32.2716 7.26797 32.2716 7.28231 32.2716 7.28947C32.2536 7.28947 32.0529 7.42566 31.3469 7.42566C30.3291 7.42566 28.7487 7.13537 27.2291 6.66948C26.9138 6.57271 26.5661 6.52254 26.2006 6.52254C24.4983 6.52254 22.5594 7.56543 20.85 8.48288C19.8178 9.03837 18.8394 9.56161 18.2194 9.67271C17.7786 9.75513 17.4095 9.79456 17.0905 9.79456Z" fill="#F9DDBD"/>
<path d="M25.8208 1.99616C27.6019 1.99616 28.9423 2.55165 29.0785 2.85269C29.1 2.9172 29.1286 2.97813 29.1645 3.03547L31.4402 6.89164H31.3542C30.3865 6.89164 28.867 6.61211 27.3941 6.15696C27.0249 6.04587 26.6271 5.98852 26.2078 5.98852C24.3693 5.98852 22.366 7.06367 20.6027 8.01338C19.653 8.52586 18.6675 9.05268 18.1335 9.14944C17.7214 9.22112 17.3809 9.25696 17.0942 9.25696C16.4276 9.25696 16.0513 9.11361 15.5639 8.275C15.055 7.39338 15.3417 6.43292 16.295 5.81292L24.527 2.15027C24.8066 2.0535 25.2868 1.99616 25.8208 1.99616ZM25.8208 0.921021C25.147 0.921021 24.5378 0.996281 24.1256 1.1468L15.7825 4.85963C14.2845 5.78783 13.8222 7.41488 14.6285 8.80898C15.245 9.87337 15.9295 10.3285 17.0906 10.3285C17.449 10.3285 17.854 10.2855 18.3163 10.2031C20.0723 9.89129 23.5845 7.06008 26.2042 7.06008C26.5089 7.06008 26.7992 7.09951 27.0751 7.18193C28.4943 7.61916 30.1787 7.9632 31.3506 7.9632C32.3684 7.9632 33.0063 7.70159 32.759 7.01708L30.0855 2.48715C29.7092 1.42275 27.5482 0.921021 25.8208 0.921021Z" fill="#E6B77E"/>
</g>
<defs>
<linearGradient id="paint0_linear_125_424" x1="42.5543" y1="7.42498" x2="17.0413" y2="10.7862" gradientUnits="userSpaceOnUse">
<stop stop-color="#EDC391"/>
<stop offset="0.0065233" stop-color="#EDC492"/>
<stop offset="0.1638" stop-color="#F2CFA5"/>
<stop offset="0.346" stop-color="#F6D7B3"/>
<stop offset="0.5754" stop-color="#F8DCBB"/>
<stop offset="1" stop-color="#F9DDBD"/>
</linearGradient>
<linearGradient id="paint1_linear_125_424" x1="-0.174328" y1="12.6453" x2="38.43" y2="17.7312" gradientUnits="userSpaceOnUse">
<stop stop-color="#F9DDBD"/>
<stop offset="0.3269" stop-color="#F8DBBA"/>
<stop offset="0.6038" stop-color="#F5D5AF"/>
<stop offset="0.8616" stop-color="#F0CB9E"/>
<stop offset="1" stop-color="#EDC391"/>
</linearGradient>
<radialGradient id="paint2_radial_125_424" cx="0" cy="0" r="1" gradientUnits="userSpaceOnUse" gradientTransform="translate(13.8118 17.705) rotate(144.745) scale(5.94948 3.92485)">
<stop offset="0.5" stop-color="#F9DDBD"/>
<stop offset="0.9995" stop-color="#EDC391"/>
</radialGradient>
<radialGradient id="paint3_radial_125_424" cx="0" cy="0" r="1" gradientUnits="userSpaceOnUse" gradientTransform="translate(20.3373 23.8688) rotate(130.726) scale(5.12729 3.85944)">
<stop offset="0.5" stop-color="#F9DDBD"/>
<stop offset="0.9995" stop-color="#EDC391"/>
</radialGradient>
<radialGradient id="paint4_radial_125_424" cx="0" cy="0" r="1" gradientUnits="userSpaceOnUse" gradientTransform="translate(9.50635 15.2028) rotate(148.133) scale(4.53664 3.34751)">
<stop offset="0.5" stop-color="#F9DDBD"/>
<stop offset="0.9995" stop-color="#EDC391"/>
</radialGradient>
<radialGradient id="paint5_radial_125_424" cx="0" cy="0" r="1" gradientUnits="userSpaceOnUse" gradientTransform="translate(17.6345 20.272) rotate(45.2391) scale(5.1222 6.14729)">
<stop offset="0.5" stop-color="#F9DDBD"/>
<stop offset="0.9995" stop-color="#EDC391"/>
</radialGradient>
</defs>
</svg>
