<svg width="41" height="30" viewBox="0 0 41 30" fill="none" xmlns="http://www.w3.org/2000/svg">
<path d="M36.9807 22.1678H3.81385L0 28.6378H40.8286L36.9807 22.1678Z" fill="url(#paint0_linear_125_404)"/>
<path opacity="0.2" d="M5.14188 21.2485H35.6527L39.6368 27.9568H1.19183L5.14188 21.2485ZM4.73326 20.5675L0 28.6379H40.8286L36.0272 20.5675H4.73326Z" fill="#424242"/>
<path d="M7.76723 23.1555H5.58789L5.86031 22.5767H8.0737L7.76723 23.1555Z" fill="#F5F5F5"/>
<path d="M11.2056 23.1555H8.99219L9.26461 22.5767H11.5121L11.2056 23.1555Z" fill="#F5F5F5"/>
<path d="M14.4751 23.1555H12.2617L12.5682 22.5767H14.7816L14.4751 23.1555Z" fill="#F5F5F5"/>
<path d="M17.7106 23.1555H15.5312L15.8718 22.5767H17.9149L17.7106 23.1555Z" fill="#F5F5F5"/>
<path d="M20.9098 23.1555H18.7305L18.9007 22.5767H20.7395L20.9098 23.1555Z" fill="#F5F5F5"/>
<path d="M24.1803 23.1555H22.0009L21.7285 22.5767H23.8057L24.1803 23.1555Z" fill="#F5F5F5"/>
<path d="M27.5177 23.1555H25.3383L24.9297 22.5767H27.109L27.5177 23.1555Z" fill="#F5F5F5"/>
<path d="M30.752 23.1555H28.5727L28.1641 22.5767H30.3775L30.752 23.1555Z" fill="#F5F5F5"/>
<path d="M35.1433 23.1555H31.8743L31.4316 22.5767H34.8369L35.1433 23.1555Z" fill="#F5F5F5"/>
<path d="M33.477 24.0067H35.6563L35.2818 23.4619H33.0684L33.477 24.0067Z" fill="#F5F5F5"/>
<path d="M29.8978 24.0067H32.0771L31.6685 23.4619H29.4551L29.8978 24.0067Z" fill="#F5F5F5"/>
<path d="M26.6324 24.0067H28.8117L28.4372 23.4619H26.2578L26.6324 24.0067Z" fill="#F5F5F5"/>
<path d="M23.0899 24.0067H25.3033L24.8947 23.4619H22.8516L23.0899 24.0067Z" fill="#F5F5F5"/>
<path d="M19.959 24.0067H22.1724L21.9 23.4619H20.0611L19.959 24.0067Z" fill="#F5F5F5"/>
<path d="M16.8242 24.0067H19.0036L19.1398 23.4619H17.0285L16.8242 24.0067Z" fill="#F5F5F5"/>
<path d="M13.3867 24.0067H15.5661L15.8385 23.4619H13.7272L13.3867 24.0067Z" fill="#F5F5F5"/>
<path d="M9.57031 24.0067H11.7497L12.0902 23.4619H9.91083L9.57031 24.0067Z" fill="#F5F5F5"/>
<path d="M5.07812 24.0067H8.38119L8.72171 23.4619H5.41865L5.07812 24.0067Z" fill="#F5F5F5"/>
<path d="M25.8472 24.8924H28.0606L27.6861 24.3135H25.4727L25.8472 24.8924Z" fill="#F5F5F5"/>
<path d="M22.3734 24.8924H24.5527L24.2463 24.3135H22.2031L22.3734 24.8924Z" fill="#F5F5F5"/>
<path d="M18.2559 24.8924H20.4352L20.3671 24.3135H18.4261L18.2559 24.8924Z" fill="#F5F5F5"/>
<path d="M14.3379 24.8924H16.5172L16.7215 24.3135H14.6103L14.3379 24.8924Z" fill="#F5F5F5"/>
<path d="M10.1855 24.8924H12.3989L12.7395 24.3135H10.5601L10.1855 24.8924Z" fill="#F5F5F5"/>
<path d="M4.66797 24.8924H9.02665L9.40123 24.3135H4.97444L4.66797 24.8924Z" fill="#F5F5F5"/>
<path d="M29.5582 24.8922H36.1302L35.7557 24.2793H29.1836L29.5582 24.8922Z" fill="#F5F5F5"/>
<path d="M34.5657 25.7436H36.7451L36.3024 25.1647H34.123L34.5657 25.7436Z" fill="#F5F5F5"/>
<path d="M30.4798 25.7436H32.6591L32.2505 25.1647H30.0371L30.4798 25.7436Z" fill="#F5F5F5"/>
<path d="M12.9766 25.7436H27.8914L27.5509 25.1647H13.3171L12.9766 25.7436Z" fill="#F5F5F5"/>
<path d="M8.31055 25.7436H10.4899L10.7623 25.1647H8.61702L8.31055 25.7436Z" fill="#F5F5F5"/>
<path d="M4.12305 25.7436H6.30239L6.57481 25.1647H4.42952L4.12305 25.7436Z" fill="#F5F5F5"/>
<path d="M12.7383 27.2418H27.9937L27.3467 26.0499H13.3853L12.7383 27.2418Z" fill="#F5F5F5"/>
<path d="M40.0795 29.9999H0.715096C0.30647 29.9999 0 29.6594 0 29.2848V28.6719H40.8286V29.2848C40.8286 29.6594 40.4881 29.9999 40.0795 29.9999Z" fill="#9E9E9E"/>
<path opacity="0.2" d="M40.4881 28.9786V29.251C40.4881 29.4553 40.3178 29.6256 40.1135 29.6256H0.715096C0.510783 29.6256 0.340522 29.4553 0.340522 29.251V28.9786H40.4881ZM40.8286 28.6381H0V29.251C0 29.6596 0.340522 29.9661 0.715096 29.9661H40.0795C40.4881 29.9661 40.7946 29.6256 40.7946 29.251V28.6381H40.8286Z" fill="#424242"/>
<path d="M36.9813 22.168H3.81445V0.953462C3.81445 0.408626 4.25713 0 4.76792 0H35.9938C36.5386 0 36.9473 0.442678 36.9473 0.953462L36.9813 22.168Z" fill="url(#paint1_linear_125_404)"/>
<path opacity="0.2" d="M35.9938 0.681044C36.1641 0.681044 36.2662 0.817253 36.2662 0.953462V21.4869H4.4955V0.953462C4.4955 0.783201 4.63171 0.681044 4.76792 0.681044H35.9938ZM35.9938 0H4.76792C4.22308 0 3.81445 0.442678 3.81445 0.953462V22.168H36.9813V0.953462C36.9813 0.408626 36.5386 0 35.9938 0Z" fill="#424242"/>
<path d="M6.81055 2.45178H33.9502V19.4438H6.81055V2.45178Z" fill="#616161"/>
<defs>
<linearGradient id="paint0_linear_125_404" x1="20.4143" y1="28.6293" x2="20.4143" y2="22.2034" gradientUnits="userSpaceOnUse">
<stop stop-color="#E0E0E0"/>
<stop offset="1" stop-color="#9E9E9E"/>
</linearGradient>
<linearGradient id="paint1_linear_125_404" x1="20.3979" y1="0.0384449" x2="20.3979" y2="22.0219" gradientUnits="userSpaceOnUse">
<stop offset="0.0056401" stop-color="#E0E0E0"/>
<stop offset="0.9988" stop-color="#9E9E9E"/>
</linearGradient>
</defs>
</svg>
