<svg width="38" height="30" viewBox="0 0 38 30" fill="none" xmlns="http://www.w3.org/2000/svg">
<path d="M34.5728 29.3911L2.77743 26.9492C2.25954 26.9084 1.87034 26.4564 1.91114 25.9385L3.83518 0.900843C3.87599 0.382952 4.32796 -0.00625037 4.84585 0.0345531L36.6412 2.47649C37.1591 2.51729 37.5483 2.96927 37.5075 3.48716L35.5834 28.5248C35.5426 29.0427 35.0907 29.4288 34.5728 29.3911Z" fill="url(#paint0_linear_125_447)"/>
<path d="M34.6353 27.5298L2.83051 29.8399C2.31262 29.8776 1.86065 29.4884 1.82298 28.9705L0.00251874 3.92026C-0.035146 3.40236 0.354057 2.95039 0.871947 2.91272L32.6767 0.602616C33.1946 0.564952 33.6466 0.954154 33.6842 1.47204L35.5016 26.5191C35.5424 27.0401 35.1532 27.4921 34.6353 27.5298Z" fill="url(#paint1_linear_125_447)"/>
<path d="M34.0201 28.327H2.69553C2.1745 28.327 1.75391 27.9065 1.75391 27.3854V0.941619C1.75391 0.42059 2.1745 0 2.69553 0H34.0201C34.5411 0 34.9617 0.42059 34.9617 0.941619V27.3854C34.9617 27.9065 34.5411 28.327 34.0201 28.327Z" fill="url(#paint2_linear_125_447)"/>
<path opacity="0.2" d="M34.1452 1.10483C34.1672 1.10483 34.1829 1.12052 34.1829 1.14249V2.50784C34.1829 3.00062 34.5627 3.40866 35.0523 3.44632L36.6907 3.57187C36.697 3.57187 36.7064 3.57187 36.7158 3.58442C36.7252 3.59698 36.7252 3.6064 36.7252 3.61267L34.8075 28.575C34.8043 28.6001 34.7855 28.6095 34.7667 28.6095L22.375 27.6585C22.3499 27.6553 22.3279 27.6553 22.3028 27.6553C22.2808 27.6553 22.2588 27.6553 22.2337 27.6585L2.95564 29.0584C2.94308 29.0584 2.92111 29.0458 2.91797 29.0238L1.11006 4.0521C1.11006 4.03012 1.12576 4.01443 1.14459 4.01129L1.98577 3.95166C2.47855 3.91713 2.85834 3.50596 2.85834 3.01318V1.14563C2.85834 1.12366 2.87403 1.10797 2.896 1.10797H34.1452M34.1452 0.163208H2.896C2.35614 0.163208 1.91672 0.60263 1.91672 1.14249V3.01004L1.07554 3.07281C0.535675 3.11048 0.130779 3.58129 0.168444 4.12115L1.97949 29.0929C2.01716 29.6076 2.44716 30 2.95564 30C2.98075 30 3.00272 30 3.02783 29.9968L22.3028 28.597L34.6945 29.548C34.7196 29.5511 34.7447 29.5511 34.7698 29.5511C35.2751 29.5511 35.7052 29.1619 35.746 28.6472L37.6637 3.68486C37.7045 3.145 37.3028 2.67419 36.7629 2.63339L35.1245 2.50784V1.14249C35.1245 0.60263 34.6851 0.163208 34.1452 0.163208Z" fill="#424242"/>
<path d="M9.75143 8.72254H4.64786C4.47523 8.72254 4.33398 8.58129 4.33398 8.40866V4.35342C4.33398 4.18079 4.47523 4.03955 4.64786 4.03955H9.75143C9.92406 4.03955 10.0653 4.18079 10.0653 4.35342V8.40866C10.0653 8.58129 9.9272 8.72254 9.75143 8.72254Z" fill="#757575"/>
<path d="M16.4616 8.72254H11.3549C11.1823 8.72254 11.041 8.58129 11.041 8.40866V4.35342C11.041 4.18079 11.1823 4.03955 11.3549 4.03955H16.4585C16.6311 4.03955 16.7723 4.18079 16.7723 4.35342V8.40866C16.7755 8.58129 16.6342 8.72254 16.4616 8.72254Z" fill="#757575"/>
<path d="M23.1706 8.72254H18.0639C17.8912 8.72254 17.75 8.58129 17.75 8.40866V4.35342C17.75 4.18079 17.8912 4.03955 18.0639 4.03955H23.1674C23.3401 4.03955 23.4813 4.18079 23.4813 4.35342V8.40866C23.4845 8.58129 23.3432 8.72254 23.1706 8.72254Z" fill="#757575"/>
<path d="M31.9015 11.2303H4.95545C4.61333 11.2303 4.33398 10.9509 4.33398 10.6088V10.5586C4.33398 10.2165 4.61333 9.93713 4.95545 9.93713H31.9015C32.2436 9.93713 32.5229 10.2165 32.5229 10.5586V10.6088C32.5229 10.9541 32.2436 11.2303 31.9015 11.2303Z" fill="#B4B4B5"/>
<path d="M12.275 24.1935H4.96173C4.61647 24.1935 4.33398 23.911 4.33398 23.5657V13.3146C4.33398 12.9694 4.61647 12.6869 4.96173 12.6869H12.275C12.6202 12.6869 12.9027 12.9694 12.9027 13.3146V23.5657C12.9027 23.9141 12.6234 24.1935 12.275 24.1935Z" fill="#757575"/>
<path d="M14.1934 13.415H31.8989" stroke="#757575" stroke-width="1.92843" stroke-miterlimit="10" stroke-linecap="round" stroke-linejoin="round"/>
<path d="M14.1934 16.0013H31.8989" stroke="#757575" stroke-width="1.92843" stroke-miterlimit="10" stroke-linecap="round" stroke-linejoin="round"/>
<path d="M24.9473 4.9248H32.3861" stroke="#B4B4B5" stroke-width="1.92843" stroke-miterlimit="10" stroke-linecap="round" stroke-linejoin="round"/>
<path d="M24.9473 7.51428H32.3861" stroke="#B4B4B5" stroke-width="1.92843" stroke-miterlimit="10" stroke-linecap="round" stroke-linejoin="round"/>
<path d="M14.1934 18.5876H31.8989" stroke="#757575" stroke-width="1.92843" stroke-miterlimit="10" stroke-linecap="round" stroke-linejoin="round"/>
<path d="M14.1934 21.1771H31.8989" stroke="#757575" stroke-width="1.92843" stroke-miterlimit="10" stroke-linecap="round" stroke-linejoin="round"/>
<path d="M14.1934 23.7635H31.8989" stroke="#757575" stroke-width="1.92843" stroke-miterlimit="10" stroke-linecap="round" stroke-linejoin="round"/>
<defs>
<linearGradient id="paint0_linear_125_447" x1="20.7333" y1="1.37561" x2="18.6771" y2="28.1408" gradientUnits="userSpaceOnUse">
<stop offset="0.00697" stop-color="#B4B4B5"/>
<stop offset="0.3655" stop-color="#B2B2B3"/>
<stop offset="0.569" stop-color="#AAA9AA"/>
<stop offset="0.7338" stop-color="#9C9C9D"/>
<stop offset="0.8768" stop-color="#898889"/>
<stop offset="1" stop-color="#717071"/>
</linearGradient>
<linearGradient id="paint1_linear_125_447" x1="16.7866" y1="1.88131" x2="18.7293" y2="28.6541" gradientUnits="userSpaceOnUse">
<stop offset="0.0117" stop-color="#EEEEEF"/>
<stop offset="0.3072" stop-color="#ECECED"/>
<stop offset="0.475" stop-color="#E4E3E4"/>
<stop offset="0.6108" stop-color="#D6D6D7"/>
<stop offset="0.7295" stop-color="#C2C2C3"/>
<stop offset="0.8369" stop-color="#A9A8A9"/>
<stop offset="0.9349" stop-color="#8A898A"/>
<stop offset="1" stop-color="#717071"/>
</linearGradient>
<linearGradient id="paint2_linear_125_447" x1="18.3572" y1="0.12963" x2="18.3572" y2="28.2957" gradientUnits="userSpaceOnUse">
<stop offset="0.005936" stop-color="#EEEEEF"/>
<stop offset="0.3475" stop-color="#ECECED"/>
<stop offset="0.5414" stop-color="#E3E3E4"/>
<stop offset="0.6982" stop-color="#D6D6D7"/>
<stop offset="0.8353" stop-color="#C2C2C3"/>
<stop offset="0.9583" stop-color="#A8A8A9"/>
<stop offset="1" stop-color="#9E9E9F"/>
</linearGradient>
</defs>
</svg>
