<svg width="24" height="24" viewBox="0 0 24 24" fill="none" xmlns="http://www.w3.org/2000/svg">
<path d="M16.5 7.5C16.5 8.69347 16.0259 9.83807 15.182 10.682C14.3381 11.5259 13.1935 12 12 12C10.8065 12 9.66193 11.5259 8.81802 10.682C7.97411 9.83807 7.5 8.69347 7.5 7.5C7.5 6.30653 7.97411 5.16193 8.81802 4.31802C9.66193 3.47411 10.8065 3 12 3C13.1935 3 14.3381 3.47411 15.182 4.31802C16.0259 5.16193 16.5 6.30653 16.5 7.5ZM12 10.5C12.7956 10.5 13.5587 10.1839 14.1213 9.62132C14.6839 9.05871 15 8.29565 15 7.5C15 6.70435 14.6839 5.94129 14.1213 5.37868C13.5587 4.81607 12.7956 4.5 12 4.5C11.2044 4.5 10.4413 4.81607 9.87868 5.37868C9.31607 5.94129 9 6.70435 9 7.5C9 8.29565 9.31607 9.05871 9.87868 9.62132C10.4413 10.1839 11.2044 10.5 12 10.5ZM12.384 21C12.2119 20.5129 12.0967 20.0075 12.0405 19.494H4.5C4.5015 19.125 4.731 18.015 5.748 16.998C6.726 16.02 8.5665 15 12 15C12.39 15 12.7605 15.0135 13.11 15.0375C13.449 14.526 13.854 14.0625 14.316 13.6605C13.6155 13.557 12.846 13.5 12 13.5C4.5 13.5 3 18 3 19.5C3 21 4.5 21 4.5 21H12.384ZM17.829 14.19C18.099 13.2705 19.401 13.2705 19.6725 14.19L19.737 14.412C19.7773 14.5497 19.8479 14.6766 19.9437 14.7834C20.0395 14.8903 20.1581 14.9742 20.2906 15.0292C20.4231 15.0842 20.5663 15.1087 20.7096 15.1011C20.8528 15.0934 20.9926 15.0538 21.1185 14.985L21.3225 14.874C22.164 14.415 23.085 15.336 22.6275 16.1775L22.515 16.3815C22.4465 16.5074 22.4071 16.647 22.3996 16.7901C22.3921 16.9332 22.4167 17.0761 22.4716 17.2085C22.5266 17.3408 22.6105 17.4592 22.7171 17.5549C22.8238 17.6506 22.9505 17.7212 23.088 17.7615L23.3115 17.829C24.2295 18.099 24.2295 19.401 23.3115 19.6725L23.0865 19.737C22.9491 19.7776 22.8224 19.8485 22.716 19.9445C22.6095 20.0404 22.5259 20.159 22.4712 20.2915C22.4165 20.424 22.3922 20.567 22.4001 20.7101C22.4079 20.8532 22.4477 20.9928 22.5165 21.1185L22.6275 21.3225C23.085 22.164 22.164 23.085 21.3225 22.6275L21.1185 22.515C20.9926 22.4465 20.853 22.4071 20.7099 22.3996C20.5668 22.3921 20.4239 22.4167 20.2915 22.4716C20.1592 22.5266 20.0408 22.6105 19.9451 22.7171C19.8494 22.8238 19.7788 22.9505 19.7385 23.088L19.671 23.3115C19.401 24.2295 18.099 24.2295 17.8275 23.3115L17.763 23.0865C17.7224 22.9491 17.6515 22.8224 17.5555 22.716C17.4596 22.6095 17.341 22.5259 17.2085 22.4712C17.076 22.4165 16.933 22.3922 16.7899 22.4001C16.6468 22.4079 16.5072 22.4477 16.3815 22.5165L16.1775 22.6275C15.336 23.085 14.415 22.164 14.8725 21.3225L14.985 21.1185C15.0535 20.9926 15.0929 20.853 15.1004 20.7099C15.1079 20.5668 15.0833 20.4239 15.0284 20.2915C14.9734 20.1592 14.8895 20.0408 14.7829 19.9451C14.6762 19.8494 14.5495 19.7788 14.412 19.7385L14.19 19.671C13.2705 19.401 13.2705 18.099 14.19 17.8275L14.412 17.763C14.5497 17.7227 14.6766 17.6521 14.7834 17.5563C14.8903 17.4605 14.9742 17.3419 15.0292 17.2094C15.0842 17.0769 15.1087 16.9337 15.1011 16.7904C15.0934 16.6472 15.0538 16.5074 14.985 16.3815L14.874 16.1775C14.415 15.336 15.336 14.415 16.1775 14.8725L16.3815 14.985C16.5074 15.0535 16.647 15.0929 16.7901 15.1004C16.9332 15.1079 17.0761 15.0833 17.2085 15.0284C17.3408 14.9734 17.4592 14.8895 17.5549 14.7829C17.6506 14.6762 17.7212 14.5495 17.7615 14.412L17.829 14.19ZM21 18.75C21 18.4545 20.9418 18.1619 20.8287 17.889C20.7157 17.616 20.5499 17.3679 20.341 17.159C20.1321 16.9501 19.884 16.7843 19.611 16.6713C19.3381 16.5582 19.0455 16.5 18.75 16.5C18.4545 16.5 18.1619 16.5582 17.889 16.6713C17.616 16.7843 17.3679 16.9501 17.159 17.159C16.9501 17.3679 16.7843 17.616 16.6713 17.889C16.5582 18.1619 16.5 18.4545 16.5 18.75C16.5 19.3467 16.7371 19.919 17.159 20.341C17.581 20.7629 18.1533 21 18.75 21C19.3467 21 19.919 20.7629 20.341 20.341C20.7629 19.919 21 19.3467 21 18.75Z" fill="white"/>
</svg>
